<svg width="1600" height="520" viewBox="0 0 1600 520" fill="none" xmlns="http://www.w3.org/2000/svg">
  <defs>
    <linearGradient id="bg" x1="110" y1="40" x2="1460" y2="470" gradientUnits="userSpaceOnUse">
      <stop stop-color="#06141B"/>
      <stop offset="0.5" stop-color="#0B2730"/>
      <stop offset="1" stop-color="#103A35"/>
    </linearGradient>
    <linearGradient id="accent" x1="240" y1="120" x2="1210" y2="390" gradientUnits="userSpaceOnUse">
      <stop stop-color="#59E3A7"/>
      <stop offset="1" stop-color="#7AE7FF"/>
    </linearGradient>
    <linearGradient id="gridfade" x1="0" y1="0" x2="1600" y2="0" gradientUnits="userSpaceOnUse">
      <stop stop-color="#FFFFFF" stop-opacity="0.02"/>
      <stop offset="0.5" stop-color="#FFFFFF" stop-opacity="0.09"/>
      <stop offset="1" stop-color="#FFFFFF" stop-opacity="0.02"/>
    </linearGradient>
  </defs>
  <rect width="1600" height="520" rx="28" fill="url(#bg)"/>
  <rect x="36" y="36" width="1528" height="448" rx="22" stroke="rgba(255,255,255,0.08)" stroke-opacity="0.2"/>
  <path d="M0 397H1600" stroke="url(#gridfade)"/>
  <path d="M0 308H1600" stroke="url(#gridfade)"/>
  <path d="M0 219H1600" stroke="url(#gridfade)"/>
  <path d="M0 130H1600" stroke="url(#gridfade)"/>
  <path d="M260 70V450" stroke="url(#gridfade)"/>
  <path d="M520 70V450" stroke="url(#gridfade)"/>
  <path d="M780 70V450" stroke="url(#gridfade)"/>
  <path d="M1040 70V450" stroke="url(#gridfade)"/>
  <path d="M1300 70V450" stroke="url(#gridfade)"/>
  <circle cx="1270" cy="129" r="150" fill="#59E3A7" fill-opacity="0.08"/>
  <circle cx="1370" cy="170" r="94" fill="#7AE7FF" fill-opacity="0.08"/>
  <rect x="94" y="108" width="280" height="188" rx="20" fill="#091C25"/>
  <rect x="94" y="108" width="280" height="188" rx="20" stroke="#173844"/>
  <text x="124" y="145" fill="#7AE7FF" font-family="SFMono-Regular, Menlo, Monaco, Consolas, monospace" font-size="24">CPU CLUSTERS</text>
  <rect x="124" y="171" width="220" height="18" rx="9" fill="#12313D"/>
  <rect x="124" y="171" width="96" height="18" rx="9" fill="#59E3A7"/>
  <text x="124" y="216" fill="#D6FFF2" font-family="SFMono-Regular, Menlo, Monaco, Consolas, monospace" font-size="22">E-cores  44%</text>
  <rect x="124" y="240" width="220" height="18" rx="9" fill="#12313D"/>
  <rect x="124" y="240" width="148" height="18" rx="9" fill="#7AE7FF"/>
  <text x="124" y="285" fill="#D6FFF2" font-family="SFMono-Regular, Menlo, Monaco, Consolas, monospace" font-size="22">P-cores  67%</text>
  <text x="102" y="370" fill="#ECFFFB" font-family="ui-sans-serif, -apple-system, BlinkMacSystemFont, 'Segoe UI', sans-serif" font-size="84" font-weight="700">silitop</text>
  <text x="106" y="414" fill="#98C7C3" font-family="ui-sans-serif, -apple-system, BlinkMacSystemFont, 'Segoe UI', sans-serif" font-size="28">apple silicon monitoring, without the guesswork</text>
  <path d="M750 295C831 242 912 266 992 220C1073 175 1154 176 1234 154C1315 132 1396 145 1476 102" stroke="url(#accent)" stroke-width="10" stroke-linecap="round"/>
  <circle cx="750" cy="295" r="9" fill="#59E3A7"/>
  <circle cx="992" cy="220" r="9" fill="#6DE5D2"/>
  <circle cx="1234" cy="154" r="9" fill="#73E6ED"/>
  <circle cx="1476" cy="102" r="9" fill="#7AE7FF"/>
  <text x="842" y="344" fill="#B9F8E4" font-family="SFMono-Regular, Menlo, Monaco, Consolas, monospace" font-size="24">powermetrics  +  parser accuracy  +  terminal speed</text>
</svg>
